HIERARCHY
ROOT hip
{
	OFFSET 0.000000 0.000000 0.000000 
	CHANNELS 6 Xposition Yposition Zposition Xrotation Zrotation Yrotation
	JOINT abdomen
	{
		OFFSET 0.000000 3.402643 0.000000 
		CHANNELS 3 Xrotation Zrotation Yrotation
		JOINT chest
		{
			OFFSET 0.000000 8.438565 -0.680529 
			CHANNELS 3 Xrotation Zrotation Yrotation
			JOINT neck
			{
				OFFSET 0.000000 10.207942 -0.272212 
				CHANNELS 3 Xrotation Zrotation Yrotation
				JOINT head
				{
					OFFSET 0.000000 3.130431 0.000000 
					CHANNELS 3 Xrotation Zrotation Yrotation
					End Site
					{
						OFFSET 0.000000 3.130435 0.000000 
					}
				}
			}
			JOINT lCollar
			{
				OFFSET 3.470700 6.669187 -0.816635 
				CHANNELS 3 Yrotation Zrotation Xrotation
				JOINT lShldr
				{
					OFFSET 3.198488 0.000000 0.000000 
					CHANNELS 3 Zrotation Yrotation Xrotation
					JOINT lForeArm
					{
						OFFSET 10.139888 0.000000 0.000000 
						CHANNELS 3 Yrotation Zrotation Xrotation
						JOINT lHand
						{
							OFFSET 8.370511 0.000000 0.000000 
							CHANNELS 3 Zrotation Yrotation Xrotation
							End Site
							{
								OFFSET 4.083176 0.000000 0.000000 
							}
						}
					}
				}
			}
			JOINT rCollar
			{
				OFFSET -3.470700 6.669187 -0.816635 
				CHANNELS 3 Yrotation Zrotation Xrotation
				JOINT rShldr
				{
					OFFSET -3.198488 0.000000 0.000000 
					CHANNELS 3 Zrotation Yrotation Xrotation
					JOINT rForeArm
					{
						OFFSET -10.139888 0.000000 0.000000 
						CHANNELS 3 Yrotation Zrotation Xrotation
						JOINT rHand
						{
							OFFSET -8.370511 0.000000 0.000000 
							CHANNELS 3 Zrotation Yrotation Xrotation
							End Site
							{
								OFFSET -4.083176 0.000000 0.000000 
							}
						}
					}
				}
			}
		}
	}
	JOINT lThigh
	{
		OFFSET 5.308129 -1.633274 1.361059 
		CHANNELS 3 Xrotation Zrotation Yrotation
		JOINT lShin
		{
			OFFSET -2.041588 -20.007561 0.000000 
			CHANNELS 3 Xrotation Zrotation Yrotation
			JOINT lFoot
			{
				OFFSET 0.000000 -19.190928 -1.224953 
				CHANNELS 3 Xrotation Yrotation Zrotation
				End Site
				{
					OFFSET 0.000000 -2.449906 4.627600 
				}
			}
		}
	}
	JOINT rThigh
	{
		OFFSET -5.308129 -1.633274 1.361059 
		CHANNELS 3 Xrotation Zrotation Yrotation
		JOINT rShin
		{
			OFFSET 2.041588 -20.007561 0.000000 
			CHANNELS 3 Xrotation Zrotation Yrotation
			JOINT rFoot
			{
				OFFSET 0.000000 -19.190928 -1.224953 
				CHANNELS 3 Xrotation Yrotation Zrotation
				End Site
				{
					OFFSET 0.000000 -2.449906 4.627600 
				}
			}
		}
	}
}
MOTION
Frames: 11
Frame Time: 0.033333
-0.013581 43.366535 0.194932 1.481260 -10.787494 80.796333 0.000000 0.000000 0.000000 -4.853777 -0.593567 6.388291 6.312082 1.897565 0.115124 -13.347641 -4.013601 -17.388580 5.999661 30.000000 20.217737 -64.616051 -2.463307 -24.735189 -68.846245 -70.344681 24.179243 -10.075749 2.141773 47.963104 -21.480322 -30.000000 10.904411 23.679680 24.492657 43.650215 99.457695 -48.043488 8.354617 24.224194 3.556057 -8.872544 -13.319206 5.253047 18.200169 68.460640 10.032480 -0.660582 8.202103 4.870702 -13.345523 -14.889683 0.712837 1.842426 21.050808 2.729514 1.487226 -9.795474 -6.828688 20.145596 
-0.072232 43.427090 0.360020 1.574503 -9.537479 80.147957 0.000000 0.000000 0.000000 -3.545268 -0.799249 6.328809 6.251644 1.308542 0.067553 -13.487204 -3.747052 -16.732639 6.638803 30.000000 19.810211 -63.262791 -6.242712 -24.735842 -76.617874 -65.398918 14.305133 -8.759352 2.078918 47.519783 -20.279476 -30.000000 11.703289 27.602472 23.074154 45.717953 100.548370 -39.848900 12.715316 25.893744 3.338801 -8.328451 -16.034029 5.487724 18.048851 71.101006 9.651828 -0.828795 8.841192 6.834476 -13.673843 -11.861991 1.239675 1.895401 21.055695 2.068667 1.309415 -10.843420 -6.341165 19.952908 
-0.167338 43.514442 0.491197 1.687340 -8.238662 79.386742 0.000000 0.000000 0.000000 -2.119460 -0.995412 6.267300 6.230756 0.546048 0.012225 -13.680423 -3.253651 -16.138792 7.768587 30.000000 19.094614 -61.881439 -9.905189 -24.863401 -83.125015 -59.529881 3.991843 -6.929857 1.702318 47.376556 -18.838787 -30.000000 12.625508 31.948555 21.127781 48.102547 100.850533 -32.967014 17.995440 27.398249 3.025700 -7.835693 -18.052387 5.680305 17.902122 70.649956 8.850350 -0.984824 8.312145 7.547711 -14.007824 -8.856166 1.689780 1.925727 20.930838 1.421796 1.175495 -11.883677 -6.021892 19.794216 
-0.272464 43.629204 0.596543 1.711694 -6.920768 78.708855 0.000000 0.000000 0.000000 -0.576286 -1.142520 6.212661 6.171994 -0.352447 -0.057168 -13.920405 -2.571196 -15.516428 8.902155 30.000000 18.414024 -60.430706 -13.478127 -25.092735 -88.215195 -52.806217 -4.847242 -5.316566 0.672506 47.370789 -17.387459 -30.000000 13.584291 36.058659 18.320694 50.567001 100.808395 -27.705053 23.790462 29.030735 3.044396 -7.321504 -19.193851 5.923711 17.852379 67.418228 7.718243 -1.127567 7.116354 7.410192 -14.763520 -5.621314 2.039770 1.920167 20.337587 0.825787 1.000424 -12.971979 -5.645739 19.843935 
-0.406304 43.773796 0.650686 2.062016 -5.982480 78.211868 0.000000 0.000000 0.000000 0.576394 -1.591716 6.087240 6.075541 -1.192966 -0.117642 -14.166514 -2.098225 -14.901030 9.734196 30.000000 17.921400 -58.534039 -17.190777 -25.573582 -91.963646 -45.257057 -11.994213 -3.860148 -0.803297 47.426975 -16.085716 -30.000000 14.495308 39.756546 14.505478 52.990410 100.700836 -23.583881 30.028135 30.865433 3.219557 -6.818613 -20.074072 5.915024 17.745142 61.888439 5.999989 -1.349647 5.662977 6.896472 -15.428463 -2.698395 1.840455 1.785875 19.501364 0.474441 0.839678 -14.106697 -5.170110 19.768654 
-0.591503 43.906872 0.644761 2.640228 -5.745888 77.986816 0.000000 0.000000 0.000000 1.074988 -2.167588 5.945324 5.960153 -1.850776 -0.164893 -14.505437 -1.886351 -14.439510 9.951218 30.000000 17.780838 -56.127907 -21.022432 -26.333870 -94.374863 -37.009987 -17.979410 -2.619317 -2.533699 47.536213 -15.294376 -30.000000 15.107804 42.760834 9.860509 55.151176 100.571815 -20.334351 36.123543 33.053963 3.932940 -6.245973 -21.019543 5.767562 17.586107 54.683216 3.796171 -1.531323 4.585886 6.277525 -15.910563 -0.545008 1.294871 1.554400 18.643957 0.435753 0.777637 -14.998928 -5.159931 20.318985 
-0.794482 43.980385 0.616152 2.965787 -6.056391 77.860321 0.000000 0.000000 0.000000 1.094751 -2.450725 5.890308 5.912422 -2.160318 -0.185857 -14.809878 -1.989612 -14.090057 9.824117 30.000000 17.768744 -53.426945 -24.563204 -27.319826 -95.539970 -28.809462 -22.839823 -1.620446 -4.237467 47.648746 -14.899544 -30.000000 15.457827 44.817745 4.974054 56.803013 100.698532 -17.867025 41.504749 35.133862 5.038276 -5.651893 -21.793844 5.984245 17.549574 46.794678 1.451211 -1.713590 4.000960 5.855577 -16.576799 1.083350 1.054060 1.448304 17.767107 0.426500 0.699920 -15.583562 -5.367760 21.233229 
-0.955776 43.995117 0.560085 2.958460 -6.495312 77.614197 0.000000 0.000000 0.000000 1.006722 -2.372681 5.905215 5.922425 -2.218560 -0.192273 -15.086890 -2.200106 -13.908371 9.885756 30.000000 17.537451 -50.771366 -27.523714 -28.355814 -96.039230 -20.919466 -26.638300 -1.098414 -5.283357 47.712784 -14.749071 -30.000000 15.575464 45.942242 0.505767 57.845383 101.288834 -15.620768 45.689518 36.761196 5.937068 -5.153419 -21.942543 6.415591 17.663677 38.793724 -0.750849 -1.775518 3.700734 6.054722 -17.628479 2.636956 1.162441 1.437638 16.998884 0.319543 0.633727 -16.437765 -5.375757 21.314219 
-1.060597 43.960564 0.461474 2.823584 -6.964275 77.117279 0.000000 0.000000 0.000000 0.869730 -2.109132 5.963745 5.951938 -2.265546 -0.188818 -15.167721 -2.350721 -13.730716 10.073859 30.000000 17.201920 -48.142212 -29.688192 -29.424522 -96.453102 -12.895214 -30.067070 -0.775007 -5.773236 47.799213 -14.605014 -30.000000 15.609684 46.387856 -3.456745 58.415077 102.092049 -13.270491 48.855831 38.198730 6.556835 -4.768703 -21.589022 6.746293 17.826014 30.737865 -2.536183 -1.752708 3.415310 7.099928 -18.998493 4.187457 1.337628 1.455599 16.475790 0.163178 0.543543 -17.550133 -4.981076 21.414900 
-1.091167 43.890232 0.312804 2.875108 -7.334607 76.409256 0.000000 0.000000 0.000000 0.674232 -1.982285 6.001744 6.020892 -2.391515 -0.204844 -14.999249 -2.219481 -13.513311 10.443128 30.000000 16.746523 -45.522858 -31.192883 -30.506357 -96.660980 -5.278717 -33.193573 -0.371665 -6.444204 47.929054 -14.359366 -30.000000 15.687042 46.459133 -6.783031 58.669029 102.921814 -11.095566 51.492580 39.235779 7.160962 -4.427384 -20.901348 6.654919 17.882746 23.335779 -3.555927 -1.534665 2.939830 8.280375 -20.270594 5.839279 1.220646 1.385570 16.009148 0.046053 0.481262 -18.703897 -4.550983 21.469347 
-1.016560 43.787380 0.104956 3.228580 -7.195713 75.717735 0.000000 0.000000 0.000000 0.791645 -2.284939 5.934868 6.187625 -2.514063 -0.206159 -14.810839 -2.052342 -13.350025 10.762756 30.000000 16.329767 -43.197323 -32.202927 -31.451939 -96.907661 1.664835 -35.793495 0.186576 -7.389580 48.075920 -14.254215 -30.000000 15.680021 46.477875 -9.204387 58.782028 103.449600 -9.504267 53.534962 40.273712 7.929519 -4.084688 -19.900515 5.906891 17.754459 17.848602 -3.680820 -1.201881 2.495201 8.572631 -21.229023 8.158647 0.498512 1.119450 15.385377 0.024440 0.434886 -19.855959 -4.362385 21.805498 
